<svg xmlns="http://www.w3.org/2000/svg" xmlns:xlink="http://www.w3.org/1999/xlink" width="146" height="121" viewBox="0 0 146 121"><defs><path id="6thca" d="M421.8 160.28v-10.2c0-1.4 1.13-2.54 2.52-2.54 1.4 0 2.52 1.14 2.52 2.55v10.2c0 1.4-1.13 2.54-2.52 2.54a2.53 2.53 0 0 1-2.52-2.55zm57.97 43.34c0 1.4-1.13 2.55-2.52 2.55h-10.08a2.53 2.53 0 0 1-2.52-2.55c0-1.41 1.12-2.55 2.52-2.55h10.08c1.4 0 2.52 1.14 2.52 2.55zm-117.2 63.72c-15.03 0-27.72-13.18-27.72-28.78 0-15.6 12.7-28.78 27.72-28.78 2.85 0 5.66.45 8.4 1.35a27.66 27.66 0 0 1 26.6-21.72c3.98-11.93 15.2-20.21 27.73-20.21 16.16 0 29.3 13.3 29.3 29.64 0 8.54-3.61 16.53-9.9 22.16a29 29 0 0 1 6.08 17.56c0 15.6-12.7 28.78-27.72 28.78zm40.23-77.48a27.92 27.92 0 0 1 21.74 19.96c6.38.37 12.18 3.19 16.76 7.43a24.54 24.54 0 0 0 8.27-18.41c0-13.53-10.9-24.54-24.27-24.54-9.95 0-18.89 6.33-22.5 15.56zm-40.23 72.38h60.49c12.3 0 22.68-10.84 22.68-23.68s-10.38-23.68-22.68-23.68a2.53 2.53 0 0 1-2.97-2 22.8 22.8 0 0 0-22.23-18.4c-11.51 0-21.15 8.79-22.42 20.43a2.55 2.55 0 0 1-1.26 1.94c-.7.4-1.56.44-2.29.1-3-1.38-6.14-2.07-9.32-2.07-12.3 0-22.68 10.84-22.68 23.68s10.39 23.68 22.68 23.68zm23.8-95.06c-.98-1-.98-2.6 0-3.6.99-1 2.58-1 3.57 0l7.13 7.2c.98 1 .98 2.62 0 3.61a2.5 2.5 0 0 1-3.57 0zm67.72 7.21c-.98-1-.98-2.6 0-3.6l7.13-7.21c.99-1 2.58-1 3.57 0 .98 1 .98 2.6 0 3.6l-7.13 7.21a2.5 2.5 0 0 1-3.57 0zm2.9 50.42c.99-1 2.59-1 3.57 0l7.13 7.2c.98 1 .98 2.62 0 3.61a2.5 2.5 0 0 1-3.57 0l-7.12-7.2c-.99-1-.99-2.62 0-3.61z"/></defs><g><g transform="translate(-334 -147)"><use fill="#778287" xlink:href="#6thca"/></g></g></svg>