<svg xmlns="http://www.w3.org/2000/svg" xmlns:xlink="http://www.w3.org/1999/xlink" width="21" height="19" viewBox="0 0 21 19"><defs><path id="vkoga" d="M581 96.9v5.7c0 .52-.43.95-.95.95h-5.73a.95.95 0 1 1 0-1.9h3.22a537 537 0 0 1-2.6-2.52 7.59 7.59 0 0 0-5.4-2.23 7.64 7.64 0 0 0-7.63 7.6 7.54 7.54 0 0 0 4.76 7.04 7.64 7.64 0 0 0 10.08-4.5.96.96 0 0 1 1.8.63 9.44 9.44 0 0 1-5.41 5.63 9.57 9.57 0 0 1-13.14-8.8 9.53 9.53 0 0 1 2.8-6.72 9.49 9.49 0 0 1 8.57-2.6 9.57 9.57 0 0 1 4.93 2.6c.28.29 1.4 1.37 2.8 2.72v-3.6a.95.95 0 0 1 1.9 0z"/></defs><g><g transform="translate(-560 -95)"><use fill="#d5dbdc" xlink:href="#vkoga"/></g></g></svg>