<svg xmlns="http://www.w3.org/2000/svg" xmlns:xlink="http://www.w3.org/1999/xlink" width="29" height="18" viewBox="0 0 29 18"><defs><path id="i0cka" d="M279.78 464.3c-2.95 0-3.52-2.54-5.9-2.54-2.56 0-2.94 2.57-5.9 2.57-2.94 0-3.32-2.57-5.89-2.57-2.5 0-2.94 2.54-5.9 2.54-2.94 0-2.94-3.14 0-3.14 2.52 0 2.96-2.5 5.9-2.5 2.95 0 3.41 2.52 5.9 2.52 2.54 0 2.94-2.51 5.9-2.51 2.94 0 3.35 2.46 5.89 2.46 2.95 0 2.95 3.17 0 3.17zm0-5.67c-2.95 0-3.52-2.54-5.9-2.54-2.56 0-2.94 2.57-5.9 2.57-2.94 0-3.32-2.57-5.89-2.57-2.5 0-2.94 2.54-5.9 2.54-2.94 0-2.94-3.14 0-3.14 2.52 0 2.96-2.5 5.9-2.5 2.95 0 3.41 2.53 5.9 2.53 2.54 0 2.94-2.52 5.9-2.52 2.94 0 3.35 2.46 5.89 2.46 2.95 0 2.95 3.17 0 3.17zm-23.58 8.2c2.51 0 2.95-2.5 5.9-2.5 2.94 0 3.4 2.52 5.89 2.52 2.54 0 2.94-2.52 5.9-2.52 2.94 0 3.35 2.47 5.89 2.47 2.95 0 2.95 3.17 0 3.17s-3.52-2.54-5.9-2.54c-2.56 0-2.94 2.56-5.9 2.56-2.94 0-3.32-2.56-5.89-2.56-2.5 0-2.94 2.54-5.9 2.54-2.94 0-2.94-3.15 0-3.15z"/></defs><g><g transform="translate(-254 -452)"><use fill="#525a5d" xlink:href="#i0cka"/><use fill="#fff" fill-opacity="0" stroke="#2e3335" stroke-linecap="round" stroke-linejoin="round" stroke-miterlimit="50" xlink:href="#i0cka"/></g></g></svg>