<svg xmlns="http://www.w3.org/2000/svg" xmlns:xlink="http://www.w3.org/1999/xlink" width="22" height="22" viewBox="0 0 22 22"><defs><path id="l92ya" d="M491.88 454.38v1.75a.88.88 0 0 1-1.75 0v-1.75a.88.88 0 0 1 1.75 0zm0 17.5v1.75a.88.88 0 0 1-1.75 0v-1.75a.88.88 0 0 1 1.75 0zm-7.07-15.3l1.24 1.23a.88.88 0 0 1-1.24 1.24l-1.23-1.24a.88.88 0 0 1 1.23-1.23zm12.38 12.37l1.23 1.24a.88.88 0 0 1-1.23 1.23l-1.24-1.23a.88.88 0 0 1 1.24-1.24zm-15.81-5.82h1.75a.88.88 0 0 1 0 1.75h-1.75a.88.88 0 0 1 0-1.75zm17.5 0h1.75a.88.88 0 0 1 0 1.75h-1.75a.88.88 0 0 1 0-1.75zm-15.3 7.06l1.23-1.24a.88.88 0 0 1 1.24 1.24l-1.24 1.23a.88.88 0 0 1-1.23-1.23zm12.37-12.38l1.24-1.23a.88.88 0 0 1 1.23 1.23l-1.23 1.24a.88.88 0 0 1-1.24-1.24zm.3 6.19a5.25 5.25 0 1 1-10.5 0 5.25 5.25 0 0 1 10.5 0zm-1.75 0a3.5 3.5 0 1 0-7 0 3.5 3.5 0 0 0 7 0z"/></defs><g><g transform="translate(-480 -453)"><use fill="#525a5d" xlink:href="#l92ya"/></g></g></svg>